<?xml version="1.0" encoding="utf-8"?>
<svg viewBox="149.443 111.288 406.996 257.552" width="406.996" height="257.552" xmlns="http://www.w3.org/2000/svg">
  <rect width="640" height="400" x="0" y="0" opacity="1" fill="#fffbf4" data-fill-palette-color="background" id="background" transform="matrix(1, 0, 0, 1, 32.941174, 38.473766)"/>
  <g id="tight-bounds" transform="matrix(1, 0, 0, 1, 155.181168, 114.873764)">
    <svg viewBox="0 0 395.52 247.2" height="247.2" width="395.52">
      <g>
        <svg/>
      </g>
      <g>
        <svg viewBox="0 0 395.52 247.2" height="247.2" width="395.52">
          <g>
            <path d="M40.576 247.2h-39.552l0-94.168 39.552 0zM1.024 0h84.543c17.186 0 32.16 2.684 44.919 8.052 12.807 5.321 22.742 13.514 29.806 24.578 7.063 11.065 10.594 25.191 10.594 42.378 0 6.874-0.583 13.261-1.749 19.16l-41.554 0c2.124-5.344 3.186-11.378 3.186-18.101 0-13.514-4.002-24.014-12.007-31.5-8.005-7.487-20.6-11.23-37.786-11.23h-40.4l0 60.831-39.552 0zM183.952 247.2h-45.061l-48.914-94.168h43.08zM217.571 247.2l0-94.168 38.493 0v59.56h54.596c13.043 0 23.472-3.037 31.288-9.111 7.863-6.074 11.795-15.868 11.795-29.382 0-8.54-1.36-15.563-4.079-21.067h41.724c2.072 7.063 3.108 14.956 3.108 23.681 0 21.895-7.063 39.128-21.189 51.7-14.126 12.525-33.549 18.787-58.268 18.787zM217.571 0h84.613c22.837 0 40.329 5.038 52.477 15.115 12.195 10.029 18.293 25.003 18.293 44.919 0 13.099-2.672 24.477-8.016 34.134l-42.095 0c0.446-0.28 0.881-0.569 1.307-0.868 6.639-4.661 9.959-13.278 9.958-25.85 0-12.713-3.32-21.4-9.958-26.062-6.639-4.661-15.727-6.992-27.263-6.992h-40.823l0 59.772-38.493 0z" fill="#3d4950" data-fill-palette-color="tertiary"/>
          </g>
          <g transform="matrix(1,0,0,1,0,100.81728058208276)">
            <svg viewBox="0 0 395.52 45.56543883583446" height="45.56543883583446" width="395.52">
              <g>
                <svg viewBox="0 0 395.52 45.56543883583446" height="45.56543883583446" width="395.52">
                  <g>
                    <svg viewBox="0 0 395.52 45.56543883583446" height="45.56543883583446" width="395.52">
                      <g>
                        <svg viewBox="0 0 395.52 45.56543883583446" height="45.56543883583446" width="395.52">
                          <g>
                            <svg viewBox="0 0 395.52 45.56543883583446" height="45.56543883583446" width="395.52">
                              <g>
                                <svg viewBox="0 0 395.52 45.56543883583446" height="45.56543883583446" width="395.52">
                                  <g transform="matrix(1,0,0,1,0,0)">
                                    <svg width="395.52" viewBox="3.930000066757202 -37.5 329.80999755859375 38" height="45.56543883583446" data-palette-color="#3d4950">
                                      <path d="M9.53 0L3.93 0 3.93-35 15.9-35Q19.55-35 22.26-33.86 24.98-32.73 26.48-30.38 27.98-28.03 27.98-24.38L27.98-24.38Q27.98-20.68 26.39-18.31 24.8-15.95 21.95-14.58L21.95-14.58 29.83 0 23.45 0 16.5-13.38Q16.43-13.38 16.38-13.38 16.32-13.38 16.25-13.38L16.25-13.38 9.53-13.38 9.53 0ZM9.53-30.28L9.53-18.1 15.15-18.1Q18.88-18.1 20.59-19.78 22.3-21.45 22.3-24.23L22.3-24.23Q22.3-27.1 20.6-28.69 18.9-30.28 15.25-30.28L15.25-30.28 9.53-30.28ZM44.57 0.5L44.57 0.5Q40.15 0.5 37.17-1.29 34.2-3.08 32.69-6.04 31.17-9 31.17-12.53L31.17-12.53Q31.17-15.95 32.59-18.82 34-21.7 36.71-23.44 39.42-25.18 43.27-25.18L43.27-25.18Q46.55-25.18 48.95-23.85 51.35-22.53 52.64-20.15 53.92-17.78 53.92-14.6L53.92-14.6Q53.92-13.95 53.86-13.25 53.8-12.55 53.65-11.78L53.65-11.78 36.57-11.78Q36.9-8.85 38.12-7.14 39.35-5.43 41.17-4.7 43-3.98 45.12-3.98L45.12-3.98Q47.02-3.98 48.87-4.41 50.72-4.85 52.35-5.68L52.35-5.68 52.82-1.4Q51.4-0.73 49.32-0.11 47.25 0.5 44.57 0.5ZM36.87-15.35L36.87-15.35 48.57-15.35Q48.57-16.82 48.02-18.04 47.47-19.25 46.29-19.98 45.1-20.7 43.22-20.7L43.22-20.7Q40.47-20.7 38.96-19.25 37.45-17.8 36.87-15.35ZM65.37 0.5L65.37 0.5Q62.45 0.5 60.37-0.15 58.3-0.8 56.95-1.53L56.95-1.53 57.5-6.28Q58.77-5.4 60.73-4.59 62.7-3.78 65.17-3.78L65.17-3.78Q67.32-3.78 68.46-4.49 69.59-5.2 69.59-6.6L69.59-6.6Q69.59-7.75 68.92-8.46 68.25-9.18 67.15-9.65 66.05-10.13 64.82-10.53L64.82-10.53Q62.9-11.15 61.18-11.98 59.47-12.8 58.41-14.19 57.35-15.58 57.35-17.88L57.35-17.88Q57.35-19.88 58.35-21.55 59.35-23.23 61.38-24.21 63.42-25.2 66.57-25.2L66.57-25.2Q68.97-25.2 70.66-24.69 72.34-24.18 73.67-23.48L73.67-23.48 73.12-18.85Q71.8-19.88 70.26-20.56 68.72-21.25 66.67-21.25L66.67-21.25Q64.77-21.25 63.65-20.51 62.52-19.78 62.52-18.28L62.52-18.28Q62.52-16.68 63.85-15.95 65.17-15.23 67.97-14.28L67.97-14.28Q69.25-13.85 70.47-13.26 71.7-12.68 72.71-11.85 73.72-11.03 74.32-9.8 74.92-8.58 74.92-6.88L74.92-6.88Q74.92-4.93 73.98-3.25 73.05-1.58 70.96-0.54 68.87 0.5 65.37 0.5ZM88.72 0.5L88.72 0.5Q85.39 0.5 83.24-0.83 81.09-2.15 80.04-4.67 78.99-7.2 78.99-10.8L78.99-10.8 78.99-24.7 84.22-24.7 84.22-11.53Q84.22-7.8 85.48-5.9 86.74-4 89.62-4L89.62-4Q91.69-4 93.31-5 94.92-6 95.69-8.05L95.69-8.05 94.84-5.3 94.84-24.7 100.07-24.7 100.07 0 95.32 0 94.67-4.6 95.92-3.4Q94.84-1.6 93.01-0.55 91.17 0.5 88.72 0.5ZM111.27 0L106.04 0 106.04-24.7 110.32-24.7 111.02-20.45 109.64-21.38Q111.57-23.28 113.67-24.23 115.77-25.18 118.27-25.18L118.27-25.18Q120.17-25.18 121.77-24.59 123.37-24 124.6-22.7 125.84-21.4 126.59-19.25L126.59-19.25 125.24-19.73Q126.39-22.28 128.68-23.73 130.97-25.18 134.42-25.18L134.42-25.18Q137.64-25.18 139.78-23.91 141.92-22.65 142.97-20.21 144.02-17.78 144.02-14.23L144.02-14.23 144.02 0 138.79 0 138.79-14Q138.79-17.48 137.55-19.09 136.31-20.7 133.49-20.7L133.49-20.7Q131.72-20.7 130.56-20.14 129.42-19.58 128.78-18.61 128.14-17.65 127.89-16.48 127.64-15.3 127.64-14.08L127.64-14.08 127.64 0 122.42 0 122.42-13.48Q122.42-16.2 121.79-17.78 121.17-19.35 119.97-20.03 118.77-20.7 117.07-20.7L117.07-20.7Q114.72-20.7 113-19.65 111.29-18.6 110.47-16.5L110.47-16.5 111.27-19.33 111.27 0ZM161.61 0.5L161.61 0.5Q157.19 0.5 154.21-1.29 151.24-3.08 149.73-6.04 148.21-9 148.21-12.53L148.21-12.53Q148.21-15.95 149.63-18.82 151.04-21.7 153.75-23.44 156.46-25.18 160.31-25.18L160.31-25.18Q163.59-25.18 165.99-23.85 168.39-22.53 169.68-20.15 170.96-17.78 170.96-14.6L170.96-14.6Q170.96-13.95 170.9-13.25 170.84-12.55 170.69-11.78L170.69-11.78 153.61-11.78Q153.94-8.85 155.16-7.14 156.39-5.43 158.21-4.7 160.04-3.98 162.16-3.98L162.16-3.98Q164.06-3.98 165.91-4.41 167.76-4.85 169.39-5.68L169.39-5.68 169.86-1.4Q168.44-0.73 166.36-0.11 164.29 0.5 161.61 0.5ZM153.91-15.35L153.91-15.35 165.61-15.35Q165.61-16.82 165.06-18.04 164.51-19.25 163.33-19.98 162.14-20.7 160.26-20.7L160.26-20.7Q157.51-20.7 156-19.25 154.49-17.8 153.91-15.35ZM201.38 0L187.58 0 187.58-35 199.56-35Q204.41-35 207-32.86 209.58-30.73 209.58-26.5L209.58-26.5Q209.58-23.5 208.26-21.35 206.93-19.2 204.28-18.4L204.28-18.4 204.71-19.38Q208.58-18.65 210.61-16.3 212.63-13.95 212.63-9.98L212.63-9.98Q212.63-5.33 209.63-2.66 206.63 0 201.38 0L201.38 0ZM193.03-15.9L193.03-4.9 200.76-4.9Q203.53-4.9 205.2-6.19 206.86-7.48 206.86-10.35L206.86-10.35Q206.86-13.48 205.15-14.69 203.43-15.9 200.76-15.9L200.76-15.9 193.03-15.9ZM193.03-30.13L193.03-20.8 198.81-20.8Q201.26-20.8 202.67-21.79 204.08-22.78 204.08-25.45L204.08-25.45Q204.08-28.15 202.67-29.14 201.26-30.13 198.81-30.13L198.81-30.13 193.03-30.13ZM226.31 0.5L226.31 0.5Q222.98 0.5 220.83-0.83 218.68-2.15 217.63-4.67 216.58-7.2 216.58-10.8L216.58-10.8 216.58-24.7 221.81-24.7 221.81-11.53Q221.81-7.8 223.07-5.9 224.33-4 227.21-4L227.21-4Q229.28-4 230.89-5 232.51-6 233.28-8.05L233.28-8.05 232.43-5.3 232.43-24.7 237.66-24.7 237.66 0 232.91 0 232.26-4.6 233.51-3.4Q232.43-1.6 230.59-0.55 228.76 0.5 226.31 0.5ZM248.85 0L243.63 0 243.63-24.7 248.85-24.7 248.85 0ZM248.85-29.5L243.63-29.5 243.63-35 248.85-35 248.85-29.5ZM262.98 0.5L261.18 0.5Q258.88 0.5 257.48-0.38 256.08-1.25 255.44-2.66 254.8-4.08 254.8-5.68L254.8-5.68 254.8-37.5 260.03-37.5 260.03-8.25Q260.03-6.2 260.29-5.24 260.55-4.28 261.31-4 262.08-3.73 263.58-3.73L263.58-3.73 262.98 0.5ZM276.82 0.5L276.82 0.5Q273.42 0.5 270.87-1.24 268.32-2.98 266.91-5.88 265.5-8.78 265.5-12.3L265.5-12.3Q265.5-15.73 266.84-18.66 268.17-21.6 270.71-23.39 273.25-25.18 276.82-25.18L276.82-25.18Q279.4-25.18 281.52-24.18 283.65-23.18 285.1-21.15L285.1-21.15 283.9-20.23 283.9-37.5 289.12-37.5 289.12 0 284.35 0 283.72-4.8 285.15-3.78Q283.8-1.7 281.67-0.6 279.55 0.5 276.82 0.5ZM277.67-3.98L277.67-3.98Q279.52-3.98 281.04-4.9 282.55-5.83 283.44-7.68 284.32-9.53 284.32-12.3L284.32-12.3Q284.32-14.95 283.44-16.84 282.55-18.73 281.04-19.71 279.52-20.7 277.67-20.7L277.67-20.7Q275.52-20.7 273.99-19.61 272.45-18.53 271.64-16.64 270.82-14.75 270.82-12.3L270.82-12.3Q270.82-9.95 271.64-8.06 272.45-6.18 273.99-5.08 275.52-3.98 277.67-3.98ZM306.95 0.5L306.95 0.5Q302.52 0.5 299.55-1.29 296.57-3.08 295.06-6.04 293.55-9 293.55-12.53L293.55-12.53Q293.55-15.95 294.96-18.82 296.37-21.7 299.08-23.44 301.8-25.18 305.65-25.18L305.65-25.18Q308.92-25.18 311.32-23.85 313.72-22.53 315.01-20.15 316.3-17.78 316.3-14.6L316.3-14.6Q316.3-13.95 316.23-13.25 316.17-12.55 316.02-11.78L316.02-11.78 298.95-11.78Q299.27-8.85 300.5-7.14 301.72-5.43 303.55-4.7 305.37-3.98 307.5-3.98L307.5-3.98Q309.4-3.98 311.25-4.41 313.1-4.85 314.72-5.68L314.72-5.68 315.2-1.4Q313.77-0.73 311.7-0.11 309.62 0.5 306.95 0.5ZM299.25-15.35L299.25-15.35 310.95-15.35Q310.95-16.82 310.4-18.04 309.85-19.25 308.66-19.98 307.47-20.7 305.6-20.7L305.6-20.7Q302.85-20.7 301.33-19.25 299.82-17.8 299.25-15.35ZM326.12 0L320.72 0 320.72-24.7 325.32-24.7 325.69-21.25Q327.19-23.05 328.91-24.13 330.62-25.2 332.62-25.2L332.62-25.2Q333.22-25.2 333.74-25.08L333.74-25.08 333.29-19.65Q332.87-19.75 332.43-19.8 331.99-19.85 331.52-19.85L331.52-19.85Q329.72-19.85 328.23-19.04 326.74-18.23 326.12-17.2L326.12-17.2 326.12 0Z" opacity="1" transform="matrix(1,0,0,1,0,0)" fill="#3d4950" class="undefined-text-0" data-fill-palette-color="primary" id="text-0"/>
                                    </svg>
                                  </g>
                                </svg>
                              </g>
                            </svg>
                          </g>
                        </svg>
                      </g>
                    </svg>
                  </g>
                </svg>
              </g>
            </svg>
          </g>
        </svg>
      </g>
    </svg>
    <rect width="395.52" height="247.2" fill="none" stroke="none" visibility="hidden"/>
  </g>
</svg>